 <svg version="1.0" xmlns="http://www.w3.org/2000/svg" width="700.000000pt" height="700.000000pt" viewBox="0 0 700.000000 700.000000" preserveAspectRatio="xMidYMid meet">
<metadata>
Created by potrace 1.12, written by Peter Selinger 2001-2015
</metadata>
<g transform="translate(0.000000,700.000000) scale(0.100000,-0.100000)" fill="#000000" stroke="none">
<path d="M2245 5195 c-33 -12 -79 -32 -103 -45 -43 -23 -172 -155 -172 -176 0
-6 -6 -17 -14 -23 -8 -6 -17 -24 -20 -39 -29 -120 -38 -167 -47 -232 -5 -41
-14 -79 -19 -84 -6 -6 -10 -30 -10 -55 0 -26 -5 -64 -11 -86 -11 -43 -21 -102
-39 -229 -6 -44 -15 -87 -20 -97 -6 -10 -10 -35 -10 -57 0 -21 -7 -61 -15 -88
-8 -27 -15 -67 -15 -90 0 -23 -5 -54 -10 -70 -9 -26 -18 -78 -37 -209 -3 -22
-10 -46 -15 -52 -8 -10 -68 -13 -240 -13 -241 0 -251 -2 -300 -48 -25 -23 -28
-32 -28 -95 0 -55 4 -74 21 -95 47 -60 56 -62 276 -62 187 0 203 -1 212 -19 6
-10 8 -21 5 -24 -6 -5 -31 -153 -44 -259 -5 -36 -16 -80 -25 -97 l-16 -31
-387 0 c-362 0 -389 -1 -416 -19 -44 -29 -66 -70 -66 -124 0 -62 23 -111 65
-137 31 -19 49 -20 387 -20 405 0 388 4 368 -77 -6 -26 -15 -83 -20 -127 -4
-43 -13 -83 -19 -89 -16 -16 -13 -110 4 -143 8 -16 15 -37 15 -48 0 -34 52
-115 99 -153 56 -47 96 -73 112 -73 6 0 25 -7 43 -15 28 -13 276 -15 2106 -12
1557 2 2085 5 2115 14 78 23 160 73 216 130 58 60 119 157 119 191 0 10 3 22
8 26 7 8 25 104 42 236 6 41 15 79 20 84 6 6 10 31 10 56 0 25 5 61 10 80 11
34 19 86 40 243 5 43 15 87 20 97 6 10 10 38 10 62 1 24 7 61 15 83 8 22 15
59 15 83 0 24 5 52 11 64 6 11 15 52 20 92 21 176 30 229 39 246 6 10 10 36
10 58 0 21 7 61 15 88 8 27 15 66 15 86 0 20 5 49 11 65 10 26 15 59 39 245 5
37 13 75 18 85 5 10 12 51 14 91 3 40 11 79 17 85 6 6 11 34 11 62 0 29 3 55
8 59 4 4 13 47 20 94 7 48 17 119 22 157 24 157 -8 274 -99 363 -48 47 -81 67
-156 94 -47 16 -165 17 -2120 16 l-2070 0 -60 -23z m4179 -306 c26 -20 27 -26
23 -78 -10 -106 -27 -212 -37 -231 -6 -10 -10 -37 -10 -59 0 -22 -5 -52 -10
-66 -6 -15 -14 -61 -20 -103 -5 -42 -16 -113 -25 -157 -8 -44 -20 -113 -25
-154 -6 -41 -15 -82 -20 -92 -6 -10 -10 -36 -10 -58 0 -22 -5 -52 -11 -68 -6
-15 -15 -62 -20 -103 -14 -117 -28 -202 -39 -234 -6 -16 -10 -47 -10 -70 -1
-23 -7 -59 -15 -81 -8 -22 -15 -58 -15 -80 0 -22 -6 -69 -15 -105 -8 -36 -19
-90 -24 -120 -21 -121 -32 -188 -41 -250 -4 -36 -13 -78 -19 -93 -6 -16 -11
-46 -11 -67 0 -21 -5 -51 -10 -65 -6 -15 -15 -62 -20 -104 -6 -42 -15 -107
-20 -145 -5 -38 -14 -74 -20 -80 -5 -5 -10 -17 -10 -26 0 -27 -67 -88 -108
-99 -49 -14 -4040 -15 -4076 -1 -34 13 -40 42 -26 136 6 44 15 112 20 153 6
40 16 85 23 100 l12 26 256 3 256 2 42 39 c40 37 41 39 41 105 0 75 -14 104
-65 136 -30 18 -49 20 -248 20 -205 0 -217 1 -227 20 -7 13 -7 32 1 62 6 24
15 75 19 114 5 40 13 81 19 92 6 12 11 40 11 63 0 83 -19 79 426 79 236 0 403
4 419 10 14 5 39 24 56 42 26 29 29 39 29 99 0 66 -1 68 -43 109 l-42 41 -370
0 c-210 -1 -376 3 -384 8 -18 12 -16 102 4 169 8 26 15 67 15 92 0 25 7 58 15
74 8 15 13 31 10 36 -2 4 0 31 6 61 6 30 14 87 20 127 5 40 14 82 19 92 6 10
10 40 10 67 1 26 7 66 15 88 8 22 15 57 15 77 0 20 5 49 11 65 6 15 15 60 20
98 19 148 28 184 52 220 28 41 56 63 95 75 15 5 934 9 2043 9 l2016 1 27 -21z"></path>
<path d="M2380 4435 c-110 -59 -120 -198 -20 -271 25 -18 49 -33 54 -33 5 -1
34 -18 65 -39 31 -21 63 -42 71 -46 8 -4 24 -12 35 -19 50 -30 141 -84 155
-90 20 -10 49 -28 85 -52 48 -32 69 -44 90 -54 11 -5 43 -24 70 -43 28 -19 57
-37 65 -41 8 -4 29 -16 45 -27 17 -11 39 -24 50 -30 11 -5 43 -23 70 -40 28
-16 57 -33 65 -37 8 -3 29 -16 45 -27 39 -28 66 -44 90 -56 11 -6 34 -19 50
-30 17 -11 47 -29 68 -40 21 -11 84 -49 140 -84 56 -34 109 -65 117 -69 16 -7
39 -21 85 -52 37 -25 66 -42 85 -51 8 -4 22 -13 31 -21 9 -7 39 -16 67 -20 48
-5 98 9 162 47 8 5 44 23 80 41 36 17 72 35 80 40 8 5 22 12 30 15 17 7 407
202 430 214 8 5 105 52 215 105 110 53 207 101 215 105 8 5 44 23 80 41 36 17
72 35 80 40 8 5 22 12 30 15 8 3 22 9 30 14 8 5 44 23 80 40 36 17 72 36 80
41 8 5 22 12 30 15 19 8 130 63 150 74 8 4 86 43 174 86 134 67 162 85 182
116 36 56 31 120 -13 176 -19 23 -43 42 -53 42 -10 0 -22 5 -25 10 -11 18 -70
11 -126 -16 -73 -35 -440 -215 -459 -225 -8 -5 -58 -29 -110 -54 -52 -26 -102
-50 -110 -55 -8 -5 -44 -23 -80 -40 -36 -18 -72 -36 -80 -41 -8 -5 -22 -12
-30 -15 -8 -3 -22 -10 -30 -15 -8 -5 -22 -12 -30 -15 -8 -3 -23 -10 -32 -15
-10 -5 -46 -23 -80 -40 -35 -17 -70 -35 -78 -40 -8 -5 -31 -16 -50 -25 -41
-20 -488 -242 -510 -254 -8 -4 -53 -26 -100 -49 -85 -41 -123 -50 -135 -31 -3
6 -25 19 -48 30 -23 12 -55 29 -72 40 -16 11 -37 23 -45 26 -8 4 -28 17 -45
29 -16 12 -37 25 -45 28 -8 4 -28 16 -45 27 -16 11 -37 23 -45 27 -23 12 -284
168 -365 219 -38 24 -79 48 -90 54 -11 6 -40 22 -65 36 -25 15 -54 32 -65 38
-19 11 -110 67 -151 94 -10 6 -28 17 -39 22 -11 6 -33 19 -50 30 -16 11 -37
23 -45 27 -8 3 -73 42 -143 85 -71 43 -131 78 -136 78 -4 0 -12 5 -19 12 -16
16 -82 38 -112 37 -14 -1 -36 -7 -50 -14z"></path>
<path d="M340 2083 c-54 -10 -100 -79 -100 -150 0 -48 28 -104 58 -119 13 -7
29 -17 35 -23 8 -8 141 -11 453 -11 423 0 444 1 476 20 56 33 78 71 78 137 0
53 -3 62 -39 103 l-39 45 -448 1 c-247 1 -460 0 -474 -3z"></path>
</g>
</svg>