<svg xmlns="http://www.w3.org/2000/svg" width="24" height="24">
    <path fill="currentColor"
        d="M6 19H4c-2.2 0-4-1.8-4-4v-1c0-2.2 1.8-4 4-4h2c.6 0 1 .4 1 1v7c0 .6-.4 1-1 1zm-2-7c-1.1 0-2 .9-2 2v1c0 1.1.9 2 2 2h1v-5H4zm16 7h-2c-.6 0-1-.4-1-1v-7c0-.6.4-1 1-1h2c2.2 0 4 1.8 4 4v1c0 2.2-1.8 4-4 4zm-1-2h1c1.1 0 2-.9 2-2v-1c0-1.1-.9-2-2-2h-1v5z" />
    <path fill="currentColor"
        d="M20.9 12.1h-.2c-.5-.1-.9-.6-.8-1.1 0-.3.1-.6.1-1 0-4.4-3.6-8-8-8s-8 3.6-8 8c0 .4 0 .7.1 1 .1.5-.3 1.1-.8 1.1-.5.1-1.1-.3-1.1-.8-.2-.4-.2-.8-.2-1.3C2 4.5 6.5 0 12 0s10 4.5 10 10c0 .5 0 .9-.1 1.3-.1.5-.5.8-1 .8zM12 24c-2.2 0-3-1.8-3-3s.8-3 3-3 3 1.8 3 3c0 .2 0 .4-.1.6 2.2-.6 3.7-2 4.5-4 .2-.5.8-.8 1.3-.6.5.2.8.8.6 1.3-1 2.6-3.5 5.7-9.3 5.7zm0-4c-.8 0-1 .6-1 1s.2 1 1 1 1-.6 1-1-.2-1-1-1z" />
</svg>