<svg version="1.0" xmlns="http://www.w3.org/2000/svg" width="700.000000pt" height="700.000000pt"
    viewBox="0 0 700.000000 700.000000" preserveAspectRatio="xMidYMid meet">
    <metadata>
        Created by potrace 1.12, written by Peter Selinger 2001-2015
    </metadata>
    <g transform="translate(0.000000,700.000000) scale(0.100000,-0.100000)" fill="currentColor" stroke="none">
        <path d="M684 6403 c-12 -2 -36 -20 -55 -39 l-34 -35 0 -1954 0 -1955 38 -37
37 -38 822 -3 c570 -2 825 -6 835 -13 10 -9 13 -173 15 -835 l3 -824 38 -37
37 -38 1955 0 1955 0 37 38 38 37 0 1955 0 1955 -38 37 -37 38 -822 3 c-568 2
-826 6 -834 13 -11 9 -14 175 -16 835 l-3 824 -38 37 -37 38 -1938 1 c-1065 1
-1946 0 -1958 -3z m3684 -285 c9 -9 12 -183 12 -722 0 -391 -4 -716 -8 -722
-4 -6 -50 -13 -105 -16 -98 -5 -99 -6 -135 -42 -34 -34 -37 -40 -36 -96 1 -49
5 -65 24 -85 40 -42 77 -55 160 -55 46 0 81 -5 88 -12 7 -7 12 -42 12 -89 0
-132 40 -184 142 -184 53 0 61 3 94 37 37 36 37 37 42 136 4 92 6 101 26 106
11 3 337 6 723 6 684 0 703 0 713 -19 16 -30 14 -3463 -2 -3479 -17 -17 -3469
-17 -3486 0 -9 9 -12 181 -12 713 0 385 3 710 6 721 5 20 14 22 106 26 99 5
100 5 136 42 34 33 37 40 37 95 0 50 -4 64 -25 86 -40 43 -60 50 -160 55 l-95
5 -5 95 c-5 100 -12 120 -55 160 -22 21 -36 25 -86 25 -55 0 -62 -3 -96 -37
-37 -37 -37 -38 -41 -135 -3 -57 -9 -101 -16 -105 -18 -12 -1414 -10 -1437 2
-19 11 -19 40 -19 1736 0 1170 3 1732 10 1745 11 19 41 19 1743 19 1335 0
1736 -3 1745 -12z"></path>
        <path d="M2434 4654 c-12 -3 -36 -21 -55 -40 l-34 -35 0 -204 0 -205 38 -37
c34 -35 41 -38 95 -38 44 0 64 6 89 24 40 30 45 45 52 161 l6 95 95 6 c145 8
185 39 185 141 0 54 -3 61 -38 96 l-37 37 -188 2 c-103 0 -196 -1 -208 -3z"></path>
        <path d="M3308 4653 c-15 -2 -41 -20 -59 -40 -29 -34 -31 -40 -27 -99 7 -116
44 -134 278 -134 178 0 217 8 255 50 16 18 20 36 20 91 0 64 -2 71 -33 101
l-32 33 -188 1 c-103 1 -199 0 -214 -3z"></path>
        <path d="M4493 3779 c-48 -10 -81 -35 -98 -75 -21 -50 -21 -356 -1 -405 23
-56 49 -73 121 -77 61 -4 64 -3 101 31 l39 35 0 211 0 210 -28 29 c-33 34 -88
51 -134 41z"></path>
        <path d="M2384 3747 l-39 -35 0 -212 0 -212 39 -35 c37 -34 40 -35 101 -31
117 7 135 44 135 278 0 234 -18 271 -135 278 -61 4 -64 3 -101 -31z"></path>
        <path d="M4475 2903 c-32 -9 -68 -42 -82 -75 -7 -17 -13 -65 -13 -107 0 -47
-5 -82 -12 -89 -7 -7 -42 -12 -85 -12 -82 0 -126 -15 -163 -54 -20 -23 -25
-37 -25 -87 0 -55 3 -62 38 -96 l37 -38 205 0 205 0 37 38 38 37 0 205 0 205
-35 35 c-27 27 -45 36 -80 39 -25 3 -54 2 -65 -1z"></path>
        <path d="M3295 2605 c-53 -23 -69 -50 -73 -121 -4 -61 -2 -67 24 -95 40 -41
78 -49 254 -49 172 0 210 7 252 47 24 23 28 34 28 82 0 69 -25 115 -76 136
-48 20 -363 20 -409 0z"></path>
    </g>
</svg>