<svg xmlns="http://www.w3.org/2000/svg" enable-background="new 0 0 24.692 24.763" viewBox="0 0 24.692 24.763"><path d="M12.692,0c-6.627,0-12,5.373-12,12c0,2.333,0.677,4.504,1.829,6.347L0,24.763l6.444-2.533C8.266,23.346,10.4,24,12.692,24c6.627,0,12-5.373,12-12S19.32,0,12.692,0z M12.692,22c-1.828,0-3.627-0.51-5.204-1.475l-0.849-0.52l-3.1,1.218l1.211-3.082l-0.534-0.854C3.22,15.691,2.692,13.863,2.692,12c0-5.514,4.486-10,10-10s10,4.486,10,10S18.207,22,12.692,22z"/><path d="M10,14.693c1.368,1.368,4.523,3.358,6.279,2.824s2.019-1.475,2.019-1.475l-0.039-1.456l-2.863-1c0,0-0.637,0.055-1.504,1.077c-1.165-0.155-2.413-1.449-2.413-1.449s-1.294-1.249-1.449-2.413c1.022-0.867,1.077-1.504,1.077-1.504l-1-2.863L8.651,6.394c0,0-0.941,0.262-1.475,2.019S8.631,13.324,10,14.693z"/></svg>